<?xml version="1.0" encoding="iso-8859-1"?>
<!-- Uploaded to: SVG Repo, www.svgrepo.com, Generator: SVG Repo Mixer Tools -->
<svg version="1.1" id="Layer_1" xmlns="http://www.w3.org/2000/svg" xmlns:xlink="http://www.w3.org/1999/xlink" 
	 viewBox="0 0 512 512" xml:space="preserve">
<g>
	<path style="fill:#DBB67E;" d="M142.036,308.582h52.086h52.073h52.073h20.709h45.863h42.294c52.033,0,94.223,42.177,94.223,94.223
		c0,5.857-2.379,11.165-6.223,14.996c-3.831,3.844-9.138,6.223-15.009,6.223h-84.195h-66.676H216.347H149.67
		c-33.455,0-60.584-27.128-60.584-60.571v-2.576v-52.294H142.036z"/>
	<path style="fill:#DBB67E;" d="M410.702,282.225v26.357h-3.569h-42.294v-26.357c0-12.669,10.263-22.931,22.931-22.931
		C400.439,259.294,410.702,269.557,410.702,282.225z"/>
	<path style="fill:#DBB67E;" d="M364.839,282.225v26.357h-45.863v-26.357c0-12.669,10.263-22.931,22.931-22.931
		C354.576,259.294,364.839,269.557,364.839,282.225z"/>
</g>
<path style="fill:#A3875E;" d="M89.087,308.582v52.295c-36.724,0-67.552-25.233-76.09-59.316h5.517h70.573V308.582z"/>
<path style="fill:#DBB67E;" d="M89.087,247.737v53.825H18.514h-5.517c-1.542-6.118-2.352-12.525-2.352-19.127v-34.698H89.087z"/>
<rect x="10.644" y="193.931" style="fill:#A3875E;" width="78.439" height="53.812"/>
<rect x="10.644" y="140.102" style="fill:#DBB67E;" width="78.439" height="53.825"/>
<path style="fill:#A3875E;" d="M89.087,105.403v34.698H10.644V86.276h72.716l3.255-0.483C88.224,92.068,89.087,98.63,89.087,105.403
	z"/>
<g>
	<path style="fill:#DBB67E;" d="M86.616,85.792l-3.255,0.483H10.644V26.96c21.664,0,41.274,8.786,55.472,22.983
		C75.882,59.697,83.074,72.012,86.616,85.792z"/>
	<path style="fill:#DBB67E;" d="M407.133,308.582c52.033,0,94.223,42.177,94.223,94.223c0,5.857-2.379,11.165-6.223,14.996
		c-3.831,3.844-9.138,6.223-15.009,6.223h-84.195h-66.676H216.347H149.67c-33.455,0-60.584-27.128-60.584-60.571v-2.576v-52.294
		h52.949h52.086h52.073h52.073h20.709"/>
	<polyline style="fill:#DBB67E;" points="329.252,424.024 329.252,485.039 348.432,485.039 	"/>
	<polyline style="fill:#DBB67E;" points="395.929,424.024 395.929,485.039 415.108,485.039 	"/>
</g>
<g>
	<path style="fill:#A3875E;" d="M364.839,282.225c0-12.669,10.263-22.931,22.931-22.931c12.669,0,22.931,10.263,22.931,22.931
		v26.357h-3.569h-42.294"/>
	<path style="fill:#A3875E;" d="M318.977,308.582v-26.357c0-12.669,10.263-22.931,22.931-22.931
		c12.669,0,22.931,10.263,22.931,22.931v26.357H318.977z"/>
</g>
<path style="fill:#DBB67E;" d="M420.298,352.314c0,13.452-10.917,24.357-24.369,24.357s-24.357-10.903-24.357-24.357"/>
<path d="M99.731,193.925v-53.824v-34.7c0-0.985-0.018-1.968-0.051-2.952c-0.215-6.513-1.137-12.992-2.754-19.301v-0.001
	c-0.001-0.002-0.001-0.004-0.002-0.007c-3.954-15.38-12.007-29.466-23.283-40.726c-16.831-16.831-39.203-26.1-62.997-26.1
	C4.766,16.315,0,21.082,0,26.96v59.316v53.825v53.824v53.812v34.699c0,1.213,0.033,2.425,0.082,3.634
	c0.247,6.14,1.11,12.21,2.591,18.08c0,0.002,0.001,0.004,0.001,0.004c0.001,0.005,0.002,0.01,0.003,0.013
	c0.001,0.005,0.003,0.011,0.004,0.016c9.106,36.299,39.653,62.557,76.155,66.741c3.377,32.251,28.369,58.16,60.19,62.949v51.169
	c0,5.878,4.766,10.644,10.644,10.644h19.166c5.879,0,10.644-4.767,10.644-10.644s-4.766-10.644-10.644-10.644h-8.522V434.67h45.388
	v50.371c0,5.878,4.766,10.644,10.644,10.644h19.166c5.879,0,10.644-4.767,10.644-10.644s-4.766-10.644-10.644-10.644h-8.522V434.67
	h91.616v50.371c0,5.878,4.767,10.644,10.644,10.644h19.18c5.878,0,10.644-4.767,10.644-10.644s-4.767-10.644-10.644-10.644h-8.536
	V434.67h45.388v50.371c0,5.878,4.767,10.644,10.644,10.644h19.179c5.878,0,10.644-4.767,10.644-10.644s-4.767-10.644-10.644-10.644
	h-8.535V434.67h73.551c8.529,0,16.537-3.322,22.522-9.329c6.032-6.01,9.354-14.013,9.354-22.535
	c0-53.003-39.529-96.941-90.653-103.899v-16.68c0-18.515-15.062-33.577-33.576-33.577c-8.86,0-16.925,3.456-22.931,9.083
	c-6.007-5.628-14.071-9.083-22.931-9.083c-18.514,0-33.576,15.062-33.576,33.577v15.711H99.731v-50.201V193.925z M77.933,349.307
	c-21.155-3.542-40.167-17.554-49.653-36.815c-0.019-0.039-0.04-0.078-0.06-0.117c-0.028-0.055-0.051-0.113-0.078-0.168h50.3v37.184
	C78.273,349.363,78.103,349.335,77.933,349.307z M78.442,237.092H21.289v-32.523h57.153V237.092z M78.442,290.918H21.815
	c-0.003-0.021-0.006-0.043-0.009-0.064c-1.023-8.283-0.517-16.864-0.517-25.199c0-0.416,0-7.274,0-7.274h57.153V290.918z
	 M21.289,183.281v-32.535h57.153v32.535H21.289z M77.913,96.92c0.047,0.378,0.084,0.757,0.125,1.135
	c0.034,0.316,0.073,0.631,0.103,0.948c0.042,0.44,0.071,0.88,0.103,1.321c0.02,0.269,0.046,0.539,0.063,0.809
	c0.031,0.491,0.049,0.982,0.069,1.474c0.009,0.219,0.024,0.439,0.031,0.659c0.022,0.712,0.033,1.424,0.033,2.137v24.054H21.289
	V96.92H77.913z M21.289,38.43c14.065,2.206,27.037,8.776,37.306,19.045c0.61,0.609,1.203,1.232,1.788,1.861
	c0.186,0.2,0.367,0.406,0.55,0.609c0.399,0.441,0.793,0.885,1.179,1.335c0.201,0.233,0.399,0.468,0.597,0.705
	c0.375,0.449,0.743,0.903,1.106,1.361c0.176,0.221,0.353,0.442,0.526,0.665c0.466,0.604,0.922,1.215,1.367,1.832
	c0.054,0.076,0.112,0.15,0.166,0.226c0.496,0.695,0.977,1.402,1.447,2.115c0.139,0.211,0.272,0.426,0.409,0.639
	c0.33,0.513,0.654,1.03,0.97,1.552c0.153,0.253,0.303,0.508,0.453,0.762c0.299,0.51,0.591,1.024,0.877,1.541
	c0.133,0.242,0.268,0.482,0.399,0.725c0.343,0.64,0.675,1.285,0.997,1.935c0.049,0.099,0.101,0.196,0.149,0.294H21.289V38.43z
	 M490.711,402.804c0,2.821-1.099,5.469-3.119,7.482c-1.987,1.994-4.64,3.092-7.469,3.092H149.67
	c-27.537,0-49.939-22.397-49.939-49.926v-2.576v-41.651h31.66v15.463c0,5.878,4.766,10.644,10.644,10.644
	c5.879,0,10.644-4.767,10.644-10.644v-15.463h30.798v15.463c0,5.878,4.766,10.644,10.644,10.644c5.879,0,10.644-4.767,10.644-10.644
	v-15.463h30.784v15.463c0,5.878,4.766,10.644,10.644,10.644s10.644-4.767,10.644-10.644v-15.463h30.785v15.463
	c0,5.878,4.767,10.644,10.644,10.644s10.644-4.767,10.644-10.644v-15.463h10.064h45.863h42.293
	C453.217,319.226,490.711,356.719,490.711,402.804z M387.771,269.938c6.775,0,12.287,5.513,12.287,12.288v15.711h-24.574v-15.711
	C375.484,275.45,380.996,269.938,387.771,269.938z M329.621,282.226c0-6.775,5.512-12.288,12.287-12.288s12.287,5.513,12.287,12.288
	v15.711h-24.574V282.226z"/>
<path d="M395.929,366.026c-7.562,0-13.712-6.15-13.712-13.712c0-5.878-4.767-10.644-10.644-10.644s-10.644,4.767-10.644,10.644
	c0,19.299,15.702,35.001,35.001,35.001c19.307,0,35.015-15.702,35.015-35.001c0-5.878-4.767-10.644-10.644-10.644
	s-10.644,4.767-10.644,10.644C409.655,359.875,403.497,366.026,395.929,366.026z"/>
</svg>